<svg xmlns="http://www.w3.org/2000/svg" width="1840" height="1170">
<rect width="100%" height="100%" fill="#f8f9fa"/>
<text x="16" y="24" font-family="monospace" font-size="14">Query optimizer physical plan</text>
<line x1="320.0" y1="897" x2="245.0" y2="955" stroke="#6b7280" stroke-width="2"/>
<line x1="320.0" y1="897" x2="395.0" y2="955" stroke="#6b7280" stroke-width="2"/>
<line x1="620.0" y1="997" x2="545.0" y2="1055" stroke="#6b7280" stroke-width="2"/>
<line x1="620.0" y1="997" x2="695.0" y2="1055" stroke="#6b7280" stroke-width="2"/>
<line x1="732.5" y1="897" x2="620.0" y2="955" stroke="#6b7280" stroke-width="2"/>
<line x1="732.5" y1="897" x2="845.0" y2="955" stroke="#6b7280" stroke-width="2"/>
<line x1="526.25" y1="797" x2="320.0" y2="855" stroke="#6b7280" stroke-width="2"/>
<line x1="526.25" y1="797" x2="732.5" y2="855" stroke="#6b7280" stroke-width="2"/>
<line x1="310.625" y1="697" x2="95.0" y2="755" stroke="#6b7280" stroke-width="2"/>
<line x1="310.625" y1="697" x2="526.25" y2="755" stroke="#6b7280" stroke-width="2"/>
<line x1="652.8125" y1="597" x2="310.625" y2="655" stroke="#6b7280" stroke-width="2"/>
<line x1="652.8125" y1="597" x2="995.0" y2="655" stroke="#6b7280" stroke-width="2"/>
<line x1="898.90625" y1="497" x2="652.8125" y2="555" stroke="#6b7280" stroke-width="2"/>
<line x1="898.90625" y1="497" x2="1145.0" y2="555" stroke="#6b7280" stroke-width="2"/>
<line x1="1096.953125" y1="397" x2="898.90625" y2="455" stroke="#6b7280" stroke-width="2"/>
<line x1="1096.953125" y1="397" x2="1295.0" y2="455" stroke="#6b7280" stroke-width="2"/>
<line x1="1270.9765625" y1="297" x2="1096.953125" y2="355" stroke="#6b7280" stroke-width="2"/>
<line x1="1270.9765625" y1="297" x2="1445.0" y2="355" stroke="#6b7280" stroke-width="2"/>
<line x1="1432.98828125" y1="197" x2="1270.9765625" y2="255" stroke="#6b7280" stroke-width="2"/>
<line x1="1432.98828125" y1="197" x2="1595.0" y2="255" stroke="#6b7280" stroke-width="2"/>
<line x1="1588.994140625" y1="97" x2="1432.98828125" y2="155" stroke="#6b7280" stroke-width="2"/>
<line x1="1588.994140625" y1="97" x2="1745.0" y2="155" stroke="#6b7280" stroke-width="2"/>
<rect x="40.0" y="755" width="110" height="42" rx="6" fill="#dbeafe" stroke="#374151"/>
<text x="95.0" y="772" text-anchor="middle" font-family="monospace" font-size="11">indexSeek</text>
<text x="95.0" y="788" text-anchor="middle" font-family="monospace" font-size="10">t00</text>
<rect x="190.0" y="955" width="110" height="42" rx="6" fill="#dbeafe" stroke="#374151"/>
<text x="245.0" y="972" text-anchor="middle" font-family="monospace" font-size="11">tableScan</text>
<text x="245.0" y="988" text-anchor="middle" font-family="monospace" font-size="10">t01</text>
<rect x="340.0" y="955" width="110" height="42" rx="6" fill="#dbeafe" stroke="#374151"/>
<text x="395.0" y="972" text-anchor="middle" font-family="monospace" font-size="11">indexSeek</text>
<text x="395.0" y="988" text-anchor="middle" font-family="monospace" font-size="10">t04</text>
<rect x="265.0" y="855" width="110" height="42" rx="6" fill="#dcfce7" stroke="#374151"/>
<text x="320.0" y="872" text-anchor="middle" font-family="monospace" font-size="11">hashJoin</text>
<text x="320.0" y="888" text-anchor="middle" font-family="monospace" font-size="10"></text>
<rect x="490.0" y="1055" width="110" height="42" rx="6" fill="#dbeafe" stroke="#374151"/>
<text x="545.0" y="1072" text-anchor="middle" font-family="monospace" font-size="11">indexSeek</text>
<text x="545.0" y="1088" text-anchor="middle" font-family="monospace" font-size="10">t02</text>
<rect x="640.0" y="1055" width="110" height="42" rx="6" fill="#dbeafe" stroke="#374151"/>
<text x="695.0" y="1072" text-anchor="middle" font-family="monospace" font-size="11">indexSeek</text>
<text x="695.0" y="1088" text-anchor="middle" font-family="monospace" font-size="10">t06</text>
<rect x="565.0" y="955" width="110" height="42" rx="6" fill="#dcfce7" stroke="#374151"/>
<text x="620.0" y="972" text-anchor="middle" font-family="monospace" font-size="11">hashJoin</text>
<text x="620.0" y="988" text-anchor="middle" font-family="monospace" font-size="10"></text>
<rect x="790.0" y="955" width="110" height="42" rx="6" fill="#dbeafe" stroke="#374151"/>
<text x="845.0" y="972" text-anchor="middle" font-family="monospace" font-size="11">tableScan</text>
<text x="845.0" y="988" text-anchor="middle" font-family="monospace" font-size="10">t03</text>
<rect x="677.5" y="855" width="110" height="42" rx="6" fill="#dcfce7" stroke="#374151"/>
<text x="732.5" y="872" text-anchor="middle" font-family="monospace" font-size="11">hashJoin</text>
<text x="732.5" y="888" text-anchor="middle" font-family="monospace" font-size="10"></text>
<rect x="471.25" y="755" width="110" height="42" rx="6" fill="#dcfce7" stroke="#374151"/>
<text x="526.25" y="772" text-anchor="middle" font-family="monospace" font-size="11">hashJoin</text>
<text x="526.25" y="788" text-anchor="middle" font-family="monospace" font-size="10"></text>
<rect x="255.625" y="655" width="110" height="42" rx="6" fill="#dcfce7" stroke="#374151"/>
<text x="310.625" y="672" text-anchor="middle" font-family="monospace" font-size="11">hashJoin</text>
<text x="310.625" y="688" text-anchor="middle" font-family="monospace" font-size="10"></text>
<rect x="940.0" y="655" width="110" height="42" rx="6" fill="#dbeafe" stroke="#374151"/>
<text x="995.0" y="672" text-anchor="middle" font-family="monospace" font-size="11">indexSeek</text>
<text x="995.0" y="688" text-anchor="middle" font-family="monospace" font-size="10">t10</text>
<rect x="597.8125" y="555" width="110" height="42" rx="6" fill="#dcfce7" stroke="#374151"/>
<text x="652.8125" y="572" text-anchor="middle" font-family="monospace" font-size="11">hashJoin</text>
<text x="652.8125" y="588" text-anchor="middle" font-family="monospace" font-size="10"></text>
<rect x="1090.0" y="555" width="110" height="42" rx="6" fill="#dbeafe" stroke="#374151"/>
<text x="1145.0" y="572" text-anchor="middle" font-family="monospace" font-size="11">tableScan</text>
<text x="1145.0" y="588" text-anchor="middle" font-family="monospace" font-size="10">t05</text>
<rect x="843.90625" y="455" width="110" height="42" rx="6" fill="#dcfce7" stroke="#374151"/>
<text x="898.90625" y="472" text-anchor="middle" font-family="monospace" font-size="11">nestedLoop</text>
<text x="898.90625" y="488" text-anchor="middle" font-family="monospace" font-size="10"></text>
<rect x="1240.0" y="455" width="110" height="42" rx="6" fill="#dbeafe" stroke="#374151"/>
<text x="1295.0" y="472" text-anchor="middle" font-family="monospace" font-size="11">tableScan</text>
<text x="1295.0" y="488" text-anchor="middle" font-family="monospace" font-size="10">t07</text>
<rect x="1041.953125" y="355" width="110" height="42" rx="6" fill="#dcfce7" stroke="#374151"/>
<text x="1096.953125" y="372" text-anchor="middle" font-family="monospace" font-size="11">nestedLoop</text>
<text x="1096.953125" y="388" text-anchor="middle" font-family="monospace" font-size="10"></text>
<rect x="1390.0" y="355" width="110" height="42" rx="6" fill="#dbeafe" stroke="#374151"/>
<text x="1445.0" y="372" text-anchor="middle" font-family="monospace" font-size="11">tableScan</text>
<text x="1445.0" y="388" text-anchor="middle" font-family="monospace" font-size="10">t09</text>
<rect x="1215.9765625" y="255" width="110" height="42" rx="6" fill="#dcfce7" stroke="#374151"/>
<text x="1270.9765625" y="272" text-anchor="middle" font-family="monospace" font-size="11">nestedLoop</text>
<text x="1270.9765625" y="288" text-anchor="middle" font-family="monospace" font-size="10"></text>
<rect x="1540.0" y="255" width="110" height="42" rx="6" fill="#dbeafe" stroke="#374151"/>
<text x="1595.0" y="272" text-anchor="middle" font-family="monospace" font-size="11">tableScan</text>
<text x="1595.0" y="288" text-anchor="middle" font-family="monospace" font-size="10">t11</text>
<rect x="1377.98828125" y="155" width="110" height="42" rx="6" fill="#dcfce7" stroke="#374151"/>
<text x="1432.98828125" y="172" text-anchor="middle" font-family="monospace" font-size="11">nestedLoop</text>
<text x="1432.98828125" y="188" text-anchor="middle" font-family="monospace" font-size="10"></text>
<rect x="1690.0" y="155" width="110" height="42" rx="6" fill="#dbeafe" stroke="#374151"/>
<text x="1745.0" y="172" text-anchor="middle" font-family="monospace" font-size="11">indexSeek</text>
<text x="1745.0" y="188" text-anchor="middle" font-family="monospace" font-size="10">t08</text>
<rect x="1533.994140625" y="55" width="110" height="42" rx="6" fill="#dcfce7" stroke="#374151"/>
<text x="1588.994140625" y="72" text-anchor="middle" font-family="monospace" font-size="11">nestedLoop</text>
<text x="1588.994140625" y="88" text-anchor="middle" font-family="monospace" font-size="10"></text>
</svg>
